<svg width="50" height="50" viewBox="0 0 50 50" fill="none" xmlns="http://www.w3.org/2000/svg">
<g clip-path="url(#clip0_3_43)">
<path d="M43.5909 21.0322C46.719 22.7527 46.719 27.2473 43.5909 28.9678L12.0611 46.3092C9.04319 47.969 5.35051 45.7857 5.35051 42.3414L5.35051 7.65859C5.35051 4.21435 9.04319 2.03097 12.0611 3.69082L43.5909 21.0322Z" fill="#FBAE43"/>
<mask id="mask0_3_43" style="mask-type:alpha" maskUnits="userSpaceOnUse" x="5" y="3" width="41" height="44">
<path d="M43.5909 21.0322C46.719 22.7527 46.719 27.2473 43.5909 28.9678L12.0611 46.3092C9.04319 47.969 5.35051 45.7857 5.35051 42.3414L5.35051 7.65859C5.35051 4.21435 9.04319 2.03097 12.0611 3.69082L43.5909 21.0322Z" fill="#D9D9D9"/>
</mask>
<g mask="url(#mask0_3_43)">
<ellipse cx="25.3876" cy="8.49055" rx="20.0371" ry="20.3774" fill="#6E44FF"/>
</g>
<path d="M21.2597 28.1596C22.3608 28.1596 23.4167 27.7157 24.1953 26.9257C24.9739 26.1356 25.4112 25.0641 25.4112 23.9468V18.6808C25.4112 17.5635 24.9739 16.492 24.1953 15.7019C23.4167 14.9119 22.3608 14.468 21.2597 14.468C20.1587 14.468 19.1027 14.9119 18.3242 15.7019C17.5456 16.492 17.1082 17.5635 17.1082 18.6808V23.9468C17.1082 25.0641 17.5456 26.1356 18.3242 26.9257C19.1027 27.7157 20.1587 28.1596 21.2597 28.1596Z" fill="white"/>
<path d="M28.5247 23.9468C28.5247 23.6675 28.4154 23.3996 28.2208 23.2021C28.0261 23.0045 27.7621 22.8936 27.4869 22.8936C27.2116 22.8936 26.9476 23.0045 26.753 23.2021C26.5583 23.3996 26.449 23.6675 26.449 23.9468C26.449 25.3434 25.9023 26.6828 24.9291 27.6704C23.9559 28.658 22.6359 29.2128 21.2596 29.2128C19.8833 29.2128 18.5633 28.658 17.5901 27.6704C16.6169 26.6828 16.0702 25.3434 16.0702 23.9468C16.0702 23.6675 15.9609 23.3996 15.7662 23.2021C15.5716 23.0045 15.3076 22.8936 15.0323 22.8936C14.7571 22.8936 14.4931 23.0045 14.2984 23.2021C14.1038 23.3996 13.9944 23.6675 13.9944 23.9468C13.9965 25.7181 14.6269 27.4295 15.7704 28.7678C16.914 30.1061 18.4941 30.9819 20.2217 31.2349V33.4256H18.0318C17.7868 33.4256 17.5519 33.5243 17.3786 33.7001C17.2054 33.8759 17.1081 34.1143 17.1081 34.3629V34.5946C17.1081 34.8432 17.2054 35.0816 17.3786 35.2574C17.5519 35.4332 17.7868 35.532 18.0318 35.532H24.4874C24.7324 35.532 24.9673 35.4332 25.1406 35.2574C25.3138 35.0816 25.4111 34.8432 25.4111 34.5946V34.3629C25.4111 34.1143 25.3138 33.8759 25.1406 33.7001C24.9673 33.5243 24.7324 33.4256 24.4874 33.4256H22.2975V31.2349C24.0251 30.9819 25.6052 30.1061 26.7488 28.7678C27.8923 27.4295 28.5227 25.7181 28.5247 23.9468Z" fill="white"/>
</g>
<defs>
<clipPath id="clip0_3_43">
<rect width="50" height="50" fill="white"/>
</clipPath>
</defs>
</svg>
