<svg width="65" height="65" viewBox="0 0 65 65" fill="none" xmlns="http://www.w3.org/2000/svg">
<path fill-rule="evenodd" clip-rule="evenodd" d="M34.2332 52.9026C34.2332 53.6006 34.7868 54.1665 35.4697 54.1665H52.533C53.2158 54.1665 53.7735 53.599 53.7309 52.9023C53.1185 42.8801 45.2744 34.8615 35.4699 34.2355C34.7883 34.192 34.2332 34.762 34.2332 35.4601V52.9026Z" fill="#254078"/>
<path fill-rule="evenodd" clip-rule="evenodd" d="M30.3334 35.4971C30.3334 34.799 29.7799 34.2332 29.097 34.2332H12.0337C11.3508 34.2332 10.7931 34.8006 10.8357 35.4974C11.4481 45.5196 19.2923 53.5381 29.0967 54.1642C29.7783 54.2077 30.3334 53.6376 30.3334 52.9396V35.4971Z" fill="#254078"/>
<path fill-rule="evenodd" clip-rule="evenodd" d="M30.3334 29.5029C30.3334 30.201 29.7799 30.7668 29.097 30.7668H12.0337C11.3508 30.7668 10.7931 30.1994 10.8357 29.5026C11.4481 19.4803 19.2923 11.4619 29.0967 10.8358C29.7783 10.7923 30.3334 11.3623 30.3334 12.0604V29.5029Z" fill="#FF62FD"/>
<path fill-rule="evenodd" clip-rule="evenodd" d="M34.2332 12.0974C34.2332 11.3994 34.7868 10.8335 35.4697 10.8335H52.533C53.2158 10.8335 53.7735 11.401 53.7309 12.0977C53.1185 22.1199 45.2744 30.1385 35.4699 30.7645C34.7883 30.808 34.2332 30.238 34.2332 29.5399V12.0974Z" fill="#0078FF"/>
</svg>
