<svg width="65" height="65" viewBox="0 0 65 65" fill="none" xmlns="http://www.w3.org/2000/svg">
<path d="M13.5644 40.5566L10.5599 41.6469L10.4 50.5233L20.8 46.75C17.2299 45.5625 14.6263 43.4696 13.5644 40.5566Z" fill="#FDBD39"/>
<path d="M15.1668 32.3232L5.20012 35.764L10.7914 41.8566L13.6635 40.8649C12.6506 38.2239 13.2757 35.2423 15.1668 32.3232Z" fill="#F69833"/>
<path d="M31.9843 19.5903C19.4316 24.139 11.3376 33.5275 13.91 40.5565L59.3666 24.083C56.7942 17.054 44.5371 15.0415 31.9843 19.5903Z" fill="#FECF33"/>
<path d="M41.2466 45.8228C53.7982 41.1077 61.905 31.42 59.3193 24.0898L13.8667 41.1634C16.4523 48.4959 28.6949 50.5378 41.2466 45.8228Z" fill="#EE6723"/>
<path d="M59.5758 24.0898L13.8667 40.7745C14.7607 43.2413 18.1757 44.4565 22.9635 44.4565C27.6334 44.4565 33.6102 43.3025 39.8412 41.0284C52.4643 36.4214 61.3434 28.9599 59.5758 24.0898Z" fill="#F69833"/>
<path d="M50.2678 20.1897C45.6005 20.1897 39.6217 21.3439 33.391 23.6182C20.7685 28.2257 11.8899 35.6858 13.6574 40.5564L59.3666 23.8698C58.4703 21.4028 55.0577 20.1897 50.2678 20.1897Z" fill="#FDBD39"/>
<path d="M47.6968 50.918C46.3515 50.918 44.3687 49.7043 41.8006 47.3085C38.7629 44.475 35.285 40.3233 32.0022 35.6204C28.7217 30.9174 26.0266 26.2168 24.4113 22.3805C22.6531 18.2016 22.4012 15.6335 23.6649 14.7441C23.9575 14.5445 24.3047 14.4424 24.6586 14.4515C25.6863 14.4515 27.6918 15.216 31.3965 18.864L31.4782 18.9434L31.4668 19.0569C31.4419 19.32 31.4192 19.5832 31.3988 19.8441L31.3579 20.3591L30.9949 19.9938C27.0021 15.9715 25.2461 15.5382 24.6744 15.5382C24.5111 15.5382 24.3818 15.5699 24.2888 15.6357C23.7398 16.0214 23.7035 17.9089 25.4095 21.9585C26.9953 25.7245 29.6519 30.3548 32.8893 34.9965C36.1289 39.6405 39.5546 43.7286 42.5402 46.5122C45.7571 49.5137 47.2068 49.8381 47.681 49.8381C47.8443 49.8381 47.9759 49.8041 48.0757 49.7337C48.6542 49.3277 48.6542 47.3063 46.7531 42.9459L46.6646 42.7463L46.8552 42.6419C47.0457 42.5375 47.2318 42.4355 47.4042 42.3356L47.6333 42.2063L47.74 42.4468C49.0875 45.5367 50.3489 49.4638 48.6951 50.6253C48.4024 50.825 48.053 50.9271 47.6968 50.918ZM47.6968 50.4416V50.6798V50.4416Z" fill="#EE6723"/>
<path d="M41.4511 45.3512L41.433 45.5872C41.1131 49.5346 40.2737 54.2807 38.0822 54.4735C38.0368 54.4781 37.9914 54.4781 37.9483 54.4781C36.4601 54.4781 35.0512 52.3455 33.7649 48.1417C32.5443 44.1624 31.5983 38.822 31.1015 33.1027C30.6024 27.3834 30.6092 21.959 31.1219 17.8278C31.68 13.3268 32.7417 10.9764 34.2799 10.8403C34.3252 10.8358 34.3729 10.8335 34.4183 10.8335C35.4981 10.8335 37.1248 12.0563 38.79 17.7507L37.7033 17.9594C37.1475 16.0582 36.5417 14.511 35.9405 13.4447C35.3847 12.4624 34.8425 11.9202 34.4183 11.9202C34.4046 11.9202 34.391 11.9202 34.3752 11.9225C33.7082 11.9814 32.7372 13.5967 32.1972 17.9616C31.6936 22.018 31.6868 27.363 32.1791 33.0074C32.6714 38.6541 33.6015 43.9152 34.7994 47.8218C35.3348 49.5709 35.9224 51.0138 36.5009 51.9916C37.0318 52.8945 37.5467 53.3914 37.9483 53.3914C37.9619 53.3914 37.9755 53.3914 37.9891 53.3891C38.6266 53.3347 39.829 51.6513 40.3349 45.7324L41.4511 45.3512Z" fill="#EE6723"/>
</svg>
