<svg width="65" height="65" viewBox="0 0 65 65" fill="none" xmlns="http://www.w3.org/2000/svg">
<path d="M20.1259 37.8926C20.1259 40.3956 18.146 42.4185 15.6963 42.4185C13.2466 42.4185 11.2667 40.3956 11.2667 37.8926C11.2667 35.3897 13.2466 33.3667 15.6963 33.3667H20.1259V37.8926ZM22.3407 37.8926C22.3407 35.3897 24.3206 33.3667 26.7704 33.3667C29.2201 33.3667 31.2 35.3897 31.2 37.8926V49.2074C31.2 51.7104 29.2201 53.7334 26.7704 53.7334C24.3206 53.7334 22.3407 51.7104 22.3407 49.2074V37.8926Z" fill="#E01E5A"/>
<path d="M26.7778 20.111C24.3322 20.111 22.3556 18.1344 22.3556 15.6888C22.3556 13.2432 24.3322 11.2666 26.7778 11.2666C29.2234 11.2666 31.2 13.2432 31.2 15.6888V20.111H26.7778ZM26.7778 22.3556C29.2234 22.3556 31.2 24.3321 31.2 26.7778C31.2 29.2234 29.2234 31.1999 26.7778 31.1999H15.6888C13.2432 31.1999 11.2667 29.2234 11.2667 26.7778C11.2667 24.3321 13.2432 22.3556 15.6888 22.3556H26.7778Z" fill="#36C5F0"/>
<path d="M44.8741 26.7778C44.8741 24.3321 46.854 22.3556 49.3037 22.3556C51.7534 22.3556 53.7333 24.3321 53.7333 26.7778C53.7333 29.2234 51.7534 31.1999 49.3037 31.1999H44.8741V26.7778ZM42.6592 26.7778C42.6592 29.2234 40.6793 31.1999 38.2296 31.1999C35.7799 31.1999 33.8 29.2234 33.8 26.7778V15.6888C33.8 13.2432 35.7799 11.2666 38.2296 11.2666C40.6793 11.2666 42.6592 13.2432 42.6592 15.6888V26.7778Z" fill="#2EB67D"/>
<path d="M38.2222 44.6815C40.6678 44.6815 42.6444 46.7045 42.6444 49.2074C42.6444 51.7104 40.6678 53.7334 38.2222 53.7334C35.7766 53.7334 33.8 51.7104 33.8 49.2074V44.6815H38.2222ZM38.2222 42.4186C35.7766 42.4186 33.8 40.3956 33.8 37.8926C33.8 35.3897 35.7766 33.3667 38.2222 33.3667H49.3111C51.7567 33.3667 53.7333 35.3897 53.7333 37.8926C53.7333 40.3956 51.7567 42.4186 49.3111 42.4186H38.2222Z" fill="#ECB22E"/>
</svg>
