<svg width="65" height="65" viewBox="0 0 65 65" fill="none" xmlns="http://www.w3.org/2000/svg">
<path d="M30.8822 24.8199V48.0978H11.2667L30.8822 24.8199ZM30.8822 16.4666C30.8822 19.0233 29.8488 21.4754 28.0095 23.2833C26.1702 25.0912 23.6756 26.1069 21.0744 26.1069C18.4732 26.1069 15.9786 25.0912 14.1393 23.2833C12.3 21.4754 11.2667 19.0233 11.2667 16.4666H30.8822ZM34.1136 48.0999C34.1136 45.5431 35.1469 43.091 36.9863 41.2832C38.8255 39.4751 41.3203 38.4595 43.9214 38.4595C46.5225 38.4595 49.0173 39.4751 50.8565 41.2832C52.6959 43.091 53.7291 45.5431 53.7291 48.0999H34.1136ZM34.1136 39.7466V16.4666H53.7333L34.1136 39.7445V39.7466Z" fill="#03363D"/>
</svg>
