<svg width="65" height="65" viewBox="0 0 65 65" fill="none" xmlns="http://www.w3.org/2000/svg">
<path d="M19.376 24.544H9.008V30.016C9.456 29.4613 10.096 29.0133 10.928 28.672C11.76 28.3093 12.6453 28.128 13.584 28.128C15.2907 28.128 16.688 28.5013 17.776 29.248C18.864 29.9947 19.6533 30.9547 20.144 32.128C20.6347 33.28 20.88 34.5173 20.88 35.84C20.88 38.2933 20.176 40.2667 18.768 41.76C17.3813 43.2533 15.3973 44 12.816 44C10.384 44 8.44267 43.392 6.992 42.176C5.54133 40.96 4.72 39.3707 4.528 37.408H8.88C9.072 38.2613 9.49867 38.944 10.16 39.456C10.8427 39.968 11.7067 40.224 12.752 40.224C14.0107 40.224 14.96 39.8293 15.6 39.04C16.24 38.2507 16.56 37.2053 16.56 35.904C16.56 34.5813 16.2293 33.5787 15.568 32.896C14.928 32.192 13.9787 31.84 12.72 31.84C11.824 31.84 11.0773 32.064 10.48 32.512C9.88267 32.96 9.456 33.5573 9.2 34.304H4.912V20.608H19.376V24.544ZM23.2898 32.032C23.2898 28.3413 23.9511 25.4507 25.2738 23.36C26.6178 21.2693 28.8364 20.224 31.9298 20.224C35.0231 20.224 37.2311 21.2693 38.5538 23.36C39.8978 25.4507 40.5698 28.3413 40.5698 32.032C40.5698 35.744 39.8978 38.656 38.5538 40.768C37.2311 42.88 35.0231 43.936 31.9298 43.936C28.8364 43.936 26.6178 42.88 25.2738 40.768C23.9511 38.656 23.2898 35.744 23.2898 32.032ZM36.1538 32.032C36.1538 30.4533 36.0471 29.1307 35.8338 28.064C35.6418 26.976 35.2364 26.0907 34.6178 25.408C34.0204 24.7253 33.1244 24.384 31.9298 24.384C30.7351 24.384 29.8284 24.7253 29.2098 25.408C28.6124 26.0907 28.2071 26.976 27.9938 28.064C27.8018 29.1307 27.7058 30.4533 27.7058 32.032C27.7058 33.6533 27.8018 35.0187 27.9938 36.128C28.1858 37.216 28.5911 38.1013 29.2098 38.784C29.8284 39.4453 30.7351 39.776 31.9298 39.776C33.1244 39.776 34.0311 39.4453 34.6498 38.784C35.2684 38.1013 35.6738 37.216 35.8658 36.128C36.0578 35.0187 36.1538 33.6533 36.1538 32.032ZM60.2253 34.56H54.1773V40.768H49.9533V34.56H43.9053V30.656H49.9533V24.448H54.1773V30.656H60.2253V34.56Z" fill="#212529"/>
</svg>
